<svg width="1280" height="720" viewBox="0 0 1280 720" fill="none" xmlns="http://www.w3.org/2000/svg">
<g clip-path="url(#clip0_120_49)">
<rect width="1280" height="720" fill="#EEEEFE"/>
<g filter="url(#filter0_d_120_49)">
<rect width="120.858" height="566.648" rx="12.7215" transform="matrix(0.794744 0.606945 -0.600018 0.799987 956.999 -122.098)" fill="url(#paint0_linear_120_49)"/>
</g>
<g filter="url(#filter1_d_120_49)">
<rect width="120.858" height="566.648" rx="12.7215" transform="matrix(0.794744 0.606945 -0.600018 0.799987 1183.95 -142.499)" fill="url(#paint1_linear_120_49)"/>
</g>
<g clip-path="url(#clip1_120_49)">
<rect width="1153" height="630" transform="translate(64 51)" fill="#FCFBFC"/>
<rect x="63.9995" y="51.0002" width="86" height="630" fill="white"/>
<path d="M99.9785 167.5C76.952 160.7 66.3981 135 63.9995 123V355H137.5V203.5C134.587 194.334 123.005 174.3 99.9785 167.5Z" fill="#2854A0"/>
<path d="M99.9785 542.5C76.952 549.3 66.3981 575 63.9995 587L63.9995 355H137.5L137.5 506.5C134.587 515.667 123.005 535.7 99.9785 542.5Z" fill="#2854A0"/>
<path fill-rule="evenodd" clip-rule="evenodd" d="M111.25 290.816C111.25 295.925 107.109 300.066 102 300.066C96.8908 300.066 92.7498 295.925 92.7498 290.816C92.7498 285.707 96.8908 281.566 102 281.566C107.109 281.566 111.25 285.707 111.25 290.816Z" stroke="#CBCBCB" stroke-width="1.5" stroke-linecap="round" stroke-linejoin="round"/>
<path d="M105.431 293.758L101.661 291.509V286.662" stroke="#CBCBCB" stroke-width="1.5" stroke-linecap="round" stroke-linejoin="round"/>
<path d="M99.1572 249.587V246.52C99.1572 245.74 99.7931 245.106 100.581 245.101H103.467C104.259 245.101 104.901 245.736 104.901 246.52V246.52V249.596C104.9 250.258 105.434 250.8 106.103 250.815H108.027C109.945 250.815 111.5 249.276 111.5 247.377V247.377V238.653C111.49 237.906 111.135 237.205 110.538 236.748L103.958 231.5C102.805 230.587 101.166 230.587 100.013 231.5L93.462 236.758C92.8623 237.212 92.5074 237.915 92.5 238.663V247.377C92.5 249.276 94.0549 250.815 95.9729 250.815H97.897C98.5824 250.815 99.138 250.265 99.138 249.587V249.587" stroke="#CBCBCB" stroke-width="1.5" stroke-linecap="round" stroke-linejoin="round"/>
<path d="M97.3715 339.017V345.877" stroke="#689AEC" stroke-width="1.5" stroke-linecap="round" stroke-linejoin="round"/>
<path d="M102.038 335.734V345.877" stroke="#689AEC" stroke-width="1.5" stroke-linecap="round" stroke-linejoin="round"/>
<path d="M106.629 342.642V345.877" stroke="#689AEC" stroke-width="1.5" stroke-linecap="round" stroke-linejoin="round"/>
<path fill-rule="evenodd" clip-rule="evenodd" d="M106.686 330.815H97.3143C94.0476 330.815 92 333.127 92 336.4V345.23C92 348.503 94.0381 350.815 97.3143 350.815H106.686C109.962 350.815 112 348.503 112 345.23V336.4C112 333.127 109.962 330.815 106.686 330.815Z" stroke="#689AEC" stroke-width="1.5" stroke-linecap="round" stroke-linejoin="round"/>
<path d="M105.773 388.12V385.088C105.773 383.004 104.084 381.315 102.001 381.315C99.9169 381.306 98.2199 382.987 98.2109 385.071V385.088V388.12" stroke="#CBCBCB" stroke-width="1.5" stroke-linecap="round" stroke-linejoin="round"/>
<path fill-rule="evenodd" clip-rule="evenodd" d="M106.742 399.816H97.2578C94.9057 399.816 93 397.911 93 395.561V390.045C93 387.695 94.9057 385.79 97.2578 385.79H106.742C109.094 385.79 111 387.695 111 390.045V395.561C111 397.911 109.094 399.816 106.742 399.816Z" stroke="#CBCBCB" stroke-width="1.5" stroke-linecap="round" stroke-linejoin="round"/>
<path fill-rule="evenodd" clip-rule="evenodd" d="M104.738 431.577H98.0848C96.0048 431.569 94.2998 433.227 94.2508 435.306V446.019C94.2048 448.132 95.8798 449.883 97.9928 449.93C98.0238 449.93 98.0538 449.931 98.0848 449.93H106.074C108.168 449.845 109.818 448.115 109.803 446.019V436.853L104.738 431.577Z" stroke="#CBCBCB" stroke-width="1.5" stroke-linecap="round" stroke-linejoin="round"/>
<path d="M104.475 431.565V434.474C104.475 435.894 105.623 437.045 107.043 437.049H109.798" stroke="#CBCBCB" stroke-width="1.5" stroke-linecap="round" stroke-linejoin="round"/>
<path d="M104.288 444.174H98.8881" stroke="#CBCBCB" stroke-width="1.5" stroke-linecap="round" stroke-linejoin="round"/>
<path d="M102.243 440.421H98.8872" stroke="#CBCBCB" stroke-width="1.5" stroke-linecap="round" stroke-linejoin="round"/>
<path fill-rule="evenodd" clip-rule="evenodd" d="M99.5915 494.022C103.281 494.022 106.434 494.581 106.434 496.814C106.434 499.047 103.302 499.622 99.5915 499.622C95.9015 499.622 92.7495 499.068 92.7495 496.834C92.7495 494.6 95.8805 494.022 99.5915 494.022Z" stroke="#CBCBCB" stroke-width="1.5" stroke-linecap="round" stroke-linejoin="round"/>
<path fill-rule="evenodd" clip-rule="evenodd" d="M99.5915 490.835C97.1695 490.835 95.2055 488.872 95.2055 486.45C95.2055 484.028 97.1695 482.065 99.5915 482.065C102.013 482.065 103.977 484.028 103.977 486.45C103.986 488.863 102.036 490.826 99.6225 490.835H99.5915Z" stroke="#CBCBCB" stroke-width="1.5" stroke-linecap="round" stroke-linejoin="round"/>
<path d="M106.483 489.697C108.084 489.472 109.317 488.098 109.32 486.435C109.32 484.796 108.125 483.436 106.558 483.179" stroke="#CBCBCB" stroke-width="1.5" stroke-linecap="round" stroke-linejoin="round"/>
<path d="M108.595 493.547C110.146 493.778 111.229 494.322 111.229 495.442C111.229 496.213 110.719 496.713 109.895 497.026" stroke="#CBCBCB" stroke-width="1.5" stroke-linecap="round" stroke-linejoin="round"/>
<line x1="151.077" y1="326" x2="151.077" y2="359" stroke="#2EBFA5" stroke-width="2" stroke-linecap="round"/>
<g clip-path="url(#clip2_120_49)">
<path d="M1092.41 98.4672C1093.35 96.2719 1094.81 93.7621 1096.24 91.9511C1097.07 90.9007 1097.71 89.7874 1098.86 88.3887C1100.94 85.8564 1100.88 83.6702 1099.99 80.7897C1098.65 76.4655 1097.53 72.0268 1096.89 67.5509C1096.49 64.8041 1097.39 61.864 1100.21 60.5159C1103.12 59.1296 1105.5 60.7788 1107.67 62.6358C1108.03 62.9448 1108.44 63.2459 1108.68 63.6391C1111.68 68.4587 1116.14 69.1002 1121.39 68.8755C1130.2 68.5137 1139.04 68.7362 1147.87 68.8092C1149.72 68.8238 1151.05 68.3598 1152.29 66.8712C1153.85 64.9794 1155.61 63.1639 1157.57 61.6888C1161.98 58.3488 1166.53 60.1541 1166.94 65.7332C1167.2 69.3282 1166.58 73.1772 1165.5 76.643C1162.29 86.9394 1161.93 83.8893 1168.09 92.1253C1169.11 93.4959 1170.09 94.9036 1171.04 96.3303C1171.22 96.6101 1171.77 97.5527 1171.91 98.5435C1170.25 98.1739 1168.16 97.5875 1166.88 97.0269C1160.03 94.0127 1152.78 91.3546 1146.32 87.5787C1145.01 86.8181 1143.56 85.7643 1142.29 85.6295C1140.45 85.4318 1138.64 85.7901 1137.21 86.6406C1134.99 87.9539 1134.4 90.6221 1134.79 93.2352C1135.1 95.3406 1136.86 96.2596 1138.54 94.9081C1142.45 91.7624 1146.12 92.596 1150.14 94.6834C1157.38 98.4424 1164.76 101.907 1172.04 105.594C1173.04 106.102 1174.16 107.063 1174.44 108.04C1174.6 108.596 1173.3 109.913 1172.4 110.371C1164.7 114.274 1156.98 118.123 1149.19 121.83C1147.46 122.656 1144.79 123.186 1142.73 123.489C1143.02 122.966 1143.02 123.012 1143.12 122.766C1143.7 121.878 1144.22 120.955 1144.82 120.081C1147.69 115.899 1145.43 109.449 1140.52 108.456C1139.5 108.25 1137.8 109.324 1137.1 110.303C1136.43 111.234 1136.09 113.099 1136.58 114.061C1140.09 121.033 1139.15 122.636 1131.29 122.497C1130.82 122.488 1130.34 122.488 1129.87 122.449C1125.19 122.074 1124.03 119.528 1126.48 115.493C1127.23 114.268 1127.93 112.381 1127.51 111.203C1126.38 107.975 1124.01 107.586 1121.34 109.756C1116.87 113.388 1116.48 116.304 1119.81 121.023C1120.18 121.546 1120.49 122.111 1121.35 123.494C1118.62 123.494 1116.56 122.673 1114.8 121.837C1107.01 118.126 1099.29 114.263 1091.6 110.361C1090.69 109.898 1089.52 108.775 1089.54 107.977C1089.55 107.18 1090.79 106.174 1091.72 105.709C1099.76 101.664 1107.88 97.7324 1115.95 93.7239C1118.94 92.2354 1121.7 92.405 1124.53 94.2621C1125.5 94.9013 1127.44 95.4192 1128.07 94.9126C1129.1 94.0891 1129.38 92.2882 1129.2 90.9805C1128.54 86.2126 1125.46 84.4499 1121.04 86.3631C1113.56 89.5941 1106.2 93.106 1098.74 96.4C1096.93 97.1977 1095.28 97.6189 1093.37 98.1897C1092.61 98.4222 1093.4 98.2571 1092.41 98.4672ZM1123.53 99.658C1123.27 97.7335 1122.06 96.4213 1119.88 96.2742C1117.91 96.1416 1116.35 97.8706 1116.36 99.9434C1116.38 101.966 1118.01 103.669 1119.91 103.641C1121.78 103.617 1123.55 101.802 1123.53 99.658ZM1147.81 100.035C1147.86 98.1436 1146.13 96.3045 1144.24 96.2427C1142.37 96.1809 1140.54 97.9346 1140.49 99.8378C1140.45 101.708 1142.2 103.582 1144.05 103.645C1145.89 103.702 1147.75 101.913 1147.81 100.04V100.035Z" fill="#2854A0"/>
<path d="M1098.07 130.16C1098.26 130.163 1098.44 130.232 1098.59 130.354C1098.67 130.415 1098.74 130.494 1098.78 130.586C1098.82 130.677 1098.84 130.778 1098.84 130.88C1098.84 130.956 1098.83 131.032 1098.81 131.104L1096.46 137.527C1096.41 137.657 1096.32 137.766 1096.2 137.833C1096.08 137.9 1095.95 137.939 1095.82 137.945C1095.68 137.943 1095.54 137.905 1095.42 137.833C1095.29 137.761 1095.18 137.651 1095.11 137.518L1093.35 133.792L1093.47 133.859L1091.72 137.518C1091.66 137.654 1091.55 137.766 1091.42 137.84C1091.3 137.911 1091.16 137.95 1091.02 137.952C1090.89 137.944 1090.76 137.905 1090.64 137.84C1090.52 137.774 1090.43 137.665 1090.38 137.534L1088.03 131.111C1088.01 131.038 1088 130.963 1088 130.887C1087.99 130.785 1088.01 130.683 1088.06 130.592C1088.1 130.5 1088.17 130.421 1088.25 130.361C1088.4 130.236 1088.59 130.165 1088.78 130.16C1088.93 130.16 1089.08 130.198 1089.2 130.272C1089.33 130.341 1089.43 130.456 1089.47 130.593L1091.36 135.931L1091.1 135.92L1092.79 132.143C1092.85 132.014 1092.95 131.905 1093.07 131.827C1093.19 131.749 1093.33 131.712 1093.48 131.721C1093.62 131.712 1093.76 131.749 1093.88 131.827C1094 131.903 1094.09 132.013 1094.14 132.143L1095.69 135.752L1095.5 135.865L1097.37 130.593C1097.41 130.454 1097.51 130.339 1097.64 130.272C1097.77 130.199 1097.92 130.16 1098.07 130.16Z" fill="#2854A0"/>
<path d="M1103.3 130.193H1107.29C1107.48 130.187 1107.66 130.252 1107.8 130.375C1107.87 130.433 1107.93 130.506 1107.96 130.587C1108 130.669 1108.02 130.757 1108.01 130.846C1108.02 130.932 1108 131.017 1107.96 131.095C1107.93 131.173 1107.87 131.242 1107.8 131.295C1107.66 131.413 1107.47 131.474 1107.29 131.467H1103.96L1104.07 131.279V133.438L1103.97 133.349H1106.76C1106.95 133.343 1107.13 133.408 1107.28 133.532C1107.34 133.59 1107.4 133.662 1107.43 133.744C1107.47 133.825 1107.49 133.914 1107.48 134.003C1107.49 134.089 1107.47 134.174 1107.43 134.252C1107.4 134.33 1107.34 134.399 1107.28 134.452C1107.13 134.57 1106.94 134.631 1106.76 134.624H1104L1104.06 134.536V136.772L1103.97 136.673H1107.29C1107.48 136.668 1107.66 136.737 1107.8 136.867C1107.87 136.922 1107.92 136.991 1107.96 137.069C1107.99 137.146 1108.01 137.231 1108.01 137.316C1108.01 137.402 1108 137.487 1107.96 137.565C1107.92 137.643 1107.87 137.711 1107.8 137.765C1107.66 137.886 1107.47 137.949 1107.29 137.943H1103.3C1103.11 137.949 1102.92 137.879 1102.78 137.75C1102.72 137.689 1102.66 137.615 1102.63 137.532C1102.59 137.448 1102.57 137.358 1102.58 137.268V130.864C1102.57 130.773 1102.59 130.684 1102.63 130.6C1102.66 130.517 1102.72 130.443 1102.78 130.382C1102.92 130.254 1103.11 130.187 1103.3 130.193Z" fill="#2854A0"/>
<path d="M1115.09 131.932L1112.52 137.558C1112.47 137.691 1112.38 137.805 1112.27 137.885C1112.16 137.959 1112.02 137.999 1111.89 137.997C1111.8 138.004 1111.72 137.993 1111.64 137.965C1111.55 137.936 1111.48 137.89 1111.42 137.831C1111.31 137.72 1111.26 137.573 1111.26 137.422C1111.26 137.35 1111.27 137.279 1111.3 137.21L1114.27 130.592C1114.32 130.45 1114.43 130.329 1114.56 130.248C1114.68 130.168 1114.83 130.134 1114.98 130.15C1115.12 130.148 1115.26 130.187 1115.38 130.262C1115.5 130.338 1115.59 130.453 1115.64 130.589L1118.57 137.078C1118.61 137.162 1118.63 137.252 1118.63 137.344C1118.64 137.434 1118.62 137.524 1118.58 137.606C1118.55 137.689 1118.49 137.761 1118.42 137.819C1118.3 137.933 1118.13 137.996 1117.96 137.997C1117.83 137.998 1117.69 137.956 1117.58 137.876C1117.46 137.79 1117.37 137.673 1117.31 137.539L1114.75 131.991L1115.09 131.932ZM1112.89 136.202L1113.55 134.934H1116.76L1116.98 136.207L1112.89 136.202Z" fill="#2854A0"/>
<path d="M1123.15 137.945C1122.93 137.948 1122.72 137.88 1122.55 137.752C1122.47 137.7 1122.41 137.628 1122.36 137.544C1122.32 137.46 1122.29 137.366 1122.29 137.27V130.866C1122.29 130.776 1122.31 130.686 1122.34 130.602C1122.38 130.519 1122.43 130.445 1122.5 130.384C1122.64 130.255 1122.83 130.186 1123.02 130.191H1126.45C1126.85 130.189 1127.25 130.294 1127.61 130.496C1127.97 130.697 1128.27 130.986 1128.48 131.337C1128.71 131.708 1128.83 132.137 1128.82 132.573C1128.82 132.857 1128.75 133.137 1128.63 133.393C1128.51 133.66 1128.34 133.903 1128.13 134.112C1127.93 134.321 1127.69 134.491 1127.43 134.611L1127.44 134.356C1127.64 134.454 1127.83 134.587 1127.99 134.749C1128.13 134.892 1128.25 135.056 1128.34 135.237C1128.42 135.413 1128.47 135.603 1128.48 135.798C1128.52 135.983 1128.54 136.145 1128.55 136.285C1128.56 136.406 1128.58 136.525 1128.62 136.64C1128.66 136.739 1128.73 136.82 1128.83 136.864C1128.91 136.906 1128.98 136.964 1129.04 137.036C1129.1 137.108 1129.14 137.191 1129.16 137.28C1129.18 137.365 1129.18 137.455 1129.15 137.54C1129.13 137.624 1129.08 137.701 1129.02 137.761C1128.93 137.858 1128.81 137.923 1128.68 137.944C1128.55 137.97 1128.41 137.97 1128.28 137.944C1128.16 137.925 1128.05 137.889 1127.94 137.838C1127.79 137.752 1127.66 137.642 1127.54 137.513C1127.39 137.344 1127.28 137.146 1127.21 136.931C1127.12 136.626 1127.08 136.308 1127.09 135.989C1127.09 135.869 1127.06 135.751 1127.02 135.641C1126.97 135.535 1126.9 135.44 1126.81 135.363C1126.72 135.281 1126.6 135.221 1126.48 135.186C1126.32 135.143 1126.16 135.123 1126 135.125H1123.6L1123.78 134.871V137.274C1123.78 137.45 1123.72 137.622 1123.61 137.756C1123.55 137.821 1123.48 137.871 1123.4 137.904C1123.32 137.936 1123.23 137.95 1123.15 137.945ZM1123.61 133.981H1126.38C1126.54 133.975 1126.69 133.909 1126.8 133.797C1126.95 133.659 1127.06 133.489 1127.14 133.3C1127.22 133.08 1127.27 132.845 1127.27 132.608C1127.28 132.311 1127.18 132.021 1126.99 131.793C1126.8 131.575 1126.6 131.467 1126.39 131.467H1123.63L1123.78 131.112V134.247L1123.61 133.981Z" fill="#2854A0"/>
<path d="M1133.84 130.193H1137.83C1138.02 130.188 1138.2 130.252 1138.35 130.375C1138.42 130.433 1138.47 130.506 1138.5 130.587C1138.54 130.669 1138.56 130.757 1138.56 130.846C1138.56 130.932 1138.54 131.017 1138.5 131.095C1138.47 131.173 1138.41 131.242 1138.35 131.295C1138.2 131.413 1138.02 131.473 1137.83 131.467H1134.5L1134.61 131.279V133.438L1134.51 133.349H1137.3C1137.49 133.343 1137.67 133.408 1137.81 133.532C1137.88 133.59 1137.93 133.662 1137.97 133.744C1138.01 133.825 1138.02 133.914 1138.02 134.003C1138.02 134.089 1138.01 134.174 1137.97 134.252C1137.93 134.33 1137.88 134.399 1137.81 134.452C1137.67 134.569 1137.48 134.63 1137.3 134.624H1134.55L1134.61 134.536V136.772L1134.51 136.673H1137.83C1138.02 136.668 1138.21 136.737 1138.35 136.867C1138.41 136.922 1138.47 136.991 1138.5 137.069C1138.54 137.146 1138.56 137.231 1138.56 137.316C1138.56 137.402 1138.54 137.487 1138.5 137.565C1138.47 137.643 1138.42 137.711 1138.35 137.765C1138.2 137.886 1138.02 137.949 1137.83 137.943H1133.84C1133.65 137.949 1133.47 137.879 1133.33 137.75C1133.26 137.689 1133.21 137.615 1133.17 137.532C1133.13 137.448 1133.12 137.358 1133.12 137.268V130.864C1133.12 130.773 1133.13 130.684 1133.17 130.6C1133.21 130.517 1133.26 130.443 1133.33 130.382C1133.47 130.254 1133.65 130.187 1133.84 130.193Z" fill="#2854A0"/>
<path d="M1152.13 130.193C1152.65 130.184 1153.17 130.286 1153.65 130.492C1154.09 130.683 1154.47 130.968 1154.78 131.328C1155.09 131.691 1155.32 132.111 1155.47 132.564C1155.63 133.048 1155.7 133.555 1155.7 134.065C1155.71 134.741 1155.57 135.411 1155.28 136.024C1155.02 136.595 1154.6 137.081 1154.08 137.425C1153.55 137.773 1152.9 137.946 1152.13 137.945H1149.29C1149.1 137.951 1148.91 137.882 1148.77 137.752C1148.7 137.691 1148.65 137.617 1148.61 137.534C1148.58 137.451 1148.56 137.361 1148.56 137.27V130.866C1148.56 130.776 1148.58 130.686 1148.61 130.603C1148.65 130.519 1148.7 130.445 1148.77 130.384C1148.91 130.255 1149.1 130.186 1149.29 130.191L1152.13 130.193ZM1152.01 136.672C1152.51 136.672 1152.92 136.552 1153.24 136.312C1153.56 136.069 1153.8 135.738 1153.94 135.359C1154.09 134.946 1154.17 134.509 1154.16 134.069C1154.16 133.735 1154.12 133.402 1154.04 133.078C1153.96 132.779 1153.83 132.497 1153.65 132.247C1153.47 132.007 1153.24 131.812 1152.98 131.677C1152.68 131.53 1152.35 131.458 1152.02 131.467H1149.93L1150.05 131.367V136.794L1149.98 136.672H1152.01Z" fill="#2854A0"/>
<path d="M1160.45 130.193H1164.43C1164.62 130.187 1164.81 130.252 1164.95 130.375C1165.02 130.433 1165.07 130.506 1165.11 130.587C1165.15 130.669 1165.16 130.757 1165.16 130.846C1165.16 130.932 1165.15 131.017 1165.11 131.095C1165.07 131.173 1165.02 131.242 1164.95 131.295C1164.81 131.413 1164.62 131.474 1164.43 131.467H1161.1L1161.21 131.279V133.438L1161.12 133.349H1163.9C1164.09 133.343 1164.28 133.408 1164.42 133.532C1164.49 133.59 1164.54 133.662 1164.58 133.744C1164.61 133.825 1164.63 133.914 1164.63 134.003C1164.63 134.089 1164.61 134.174 1164.58 134.252C1164.54 134.33 1164.49 134.399 1164.42 134.452C1164.27 134.57 1164.09 134.631 1163.9 134.624H1161.15L1161.21 134.536V136.772L1161.12 136.673H1164.43C1164.63 136.668 1164.81 136.737 1164.95 136.867C1165.02 136.922 1165.07 136.991 1165.1 137.069C1165.14 137.146 1165.16 137.231 1165.16 137.316C1165.16 137.402 1165.14 137.487 1165.11 137.565C1165.07 137.643 1165.02 137.711 1164.95 137.765C1164.81 137.886 1164.62 137.95 1164.43 137.943H1160.45C1160.26 137.949 1160.07 137.879 1159.93 137.75C1159.86 137.689 1159.81 137.615 1159.77 137.532C1159.74 137.448 1159.72 137.358 1159.72 137.268V130.864C1159.72 130.773 1159.74 130.684 1159.77 130.6C1159.81 130.517 1159.86 130.443 1159.93 130.382C1160.07 130.255 1160.26 130.187 1160.45 130.193Z" fill="#2854A0"/>
<path d="M1175.26 130.171C1175.45 130.167 1175.63 130.232 1175.78 130.354C1175.85 130.408 1175.91 130.478 1175.95 130.557C1175.98 130.637 1176 130.725 1176 130.814C1176 130.917 1175.98 131.019 1175.93 131.112L1172.99 137.516C1172.93 137.655 1172.82 137.77 1172.69 137.843C1172.57 137.911 1172.43 137.947 1172.29 137.949C1172.16 137.942 1172.03 137.903 1171.92 137.836C1171.8 137.765 1171.71 137.658 1171.65 137.531L1168.71 131.108C1168.69 131.065 1168.67 131.018 1168.66 130.97C1168.65 130.924 1168.65 130.878 1168.65 130.832C1168.65 130.735 1168.67 130.638 1168.71 130.552C1168.75 130.465 1168.82 130.392 1168.9 130.338C1169.03 130.233 1169.2 130.171 1169.37 130.16C1169.51 130.155 1169.65 130.194 1169.76 130.272C1169.88 130.349 1169.97 130.461 1170.02 130.592L1172.63 136.295L1172.21 136.306L1174.6 130.592C1174.66 130.462 1174.75 130.352 1174.87 130.277C1174.98 130.201 1175.12 130.164 1175.26 130.171Z" fill="#2854A0"/>
</g>
</g>
<line x1="151.55" y1="51" x2="151.646" y2="681" stroke="#CBCBCB" stroke-width="0.5"/>
<line x1="152.001" y1="144.75" x2="1180" y2="146.93" stroke="#CBCBCB" stroke-width="0.5"/>
<g filter="url(#filter2_d_120_49)">
<path d="M166 83.4565C166 72.711 174.711 64 185.456 64H310.544C321.289 64 330 72.711 330 83.4565V114.544C330 125.289 321.289 134 310.544 134H185.456C174.711 134 166 125.289 166 114.544V83.4565Z" fill="#2854A0"/>
</g>
<g filter="url(#filter3_d_120_49)">
<path d="M349 83.4565C349 72.711 357.711 64 368.456 64H493.544C504.289 64 513 72.711 513 83.4565V114.544C513 125.289 504.289 134 493.544 134H368.456C357.711 134 349 125.289 349 114.544V83.4565Z" fill="#2854A0"/>
</g>
<g filter="url(#filter4_d_120_49)">
<path d="M532 83.4565C532 72.711 540.711 64 551.456 64H676.544C687.289 64 696 72.711 696 83.4565V114.544C696 125.289 687.289 134 676.544 134H551.456C540.711 134 532 125.289 532 114.544V83.4565Z" fill="#2854A0"/>
</g>
<g filter="url(#filter5_d_120_49)">
<path d="M715 83.4565C715 72.711 723.711 64 734.456 64H859.544C870.289 64 879 72.711 879 83.4565V114.544C879 125.289 870.289 134 859.544 134H734.456C723.711 134 715 125.289 715 114.544V83.4565Z" fill="#2854A0"/>
</g>
<g filter="url(#filter6_d_120_49)">
<path d="M898 83.4565C898 72.711 906.711 64 917.456 64H1042.54C1053.29 64 1062 72.711 1062 83.4565V114.544C1062 125.289 1053.29 134 1042.54 134H917.456C906.711 134 898 125.289 898 114.544V83.4565Z" fill="#2854A0"/>
</g>
<g filter="url(#filter7_d_120_49)">
<path d="M169 180.456C169 169.711 177.711 161 188.456 161H1156.54C1167.29 161 1176 169.711 1176 180.456V374.544C1176 385.289 1167.29 394 1156.54 394H188.456C177.711 394 169 385.289 169 374.544V180.456Z" fill="#F8F8F8"/>
</g>
<g filter="url(#filter8_d_120_49)">
<path d="M169 428.456C169 417.711 177.711 409 188.456 409H1156.54C1167.29 409 1176 417.711 1176 428.456V629.544C1176 640.289 1167.29 649 1156.54 649H188.456C177.711 649 169 640.289 169 629.544V428.456Z" fill="#F8F8F8"/>
</g>
</g>
<defs>
<filter id="filter0_d_120_49" x="614.591" y="-122.961" width="443.861" height="534.379" filterUnits="userSpaceOnUse" color-interpolation-filters="sRGB">
<feFlood flood-opacity="0" result="BackgroundImageFix"/>
<feColorMatrix in="SourceAlpha" type="matrix" values="0 0 0 0 0 0 0 0 0 0 0 0 0 0 0 0 0 0 127 0" result="hardAlpha"/>
<feOffset dx="1.49665" dy="2.9933"/>
<feGaussianBlur stdDeviation="4.48995"/>
<feComposite in2="hardAlpha" operator="out"/>
<feColorMatrix type="matrix" values="0 0 0 0 0.392157 0 0 0 0 0.203922 0 0 0 0 0.972549 0 0 0 0.15 0"/>
<feBlend mode="normal" in2="BackgroundImageFix" result="effect1_dropShadow_120_49"/>
<feBlend mode="normal" in="SourceGraphic" in2="effect1_dropShadow_120_49" result="shape"/>
</filter>
<filter id="filter1_d_120_49" x="841.541" y="-143.362" width="443.861" height="534.379" filterUnits="userSpaceOnUse" color-interpolation-filters="sRGB">
<feFlood flood-opacity="0" result="BackgroundImageFix"/>
<feColorMatrix in="SourceAlpha" type="matrix" values="0 0 0 0 0 0 0 0 0 0 0 0 0 0 0 0 0 0 127 0" result="hardAlpha"/>
<feOffset dx="1.49665" dy="2.9933"/>
<feGaussianBlur stdDeviation="4.48995"/>
<feComposite in2="hardAlpha" operator="out"/>
<feColorMatrix type="matrix" values="0 0 0 0 0.392157 0 0 0 0 0.203922 0 0 0 0 0.972549 0 0 0 0.15 0"/>
<feBlend mode="normal" in2="BackgroundImageFix" result="effect1_dropShadow_120_49"/>
<feBlend mode="normal" in="SourceGraphic" in2="effect1_dropShadow_120_49" result="shape"/>
</filter>
<filter id="filter2_d_120_49" x="158.517" y="58.0134" width="181.96" height="87.9598" filterUnits="userSpaceOnUse" color-interpolation-filters="sRGB">
<feFlood flood-opacity="0" result="BackgroundImageFix"/>
<feColorMatrix in="SourceAlpha" type="matrix" values="0 0 0 0 0 0 0 0 0 0 0 0 0 0 0 0 0 0 127 0" result="hardAlpha"/>
<feOffset dx="1.49665" dy="2.9933"/>
<feGaussianBlur stdDeviation="4.48995"/>
<feComposite in2="hardAlpha" operator="out"/>
<feColorMatrix type="matrix" values="0 0 0 0 0.392157 0 0 0 0 0.203922 0 0 0 0 0.972549 0 0 0 0.15 0"/>
<feBlend mode="normal" in2="BackgroundImageFix" result="effect1_dropShadow_120_49"/>
<feBlend mode="normal" in="SourceGraphic" in2="effect1_dropShadow_120_49" result="shape"/>
</filter>
<filter id="filter3_d_120_49" x="341.517" y="58.0134" width="181.96" height="87.9598" filterUnits="userSpaceOnUse" color-interpolation-filters="sRGB">
<feFlood flood-opacity="0" result="BackgroundImageFix"/>
<feColorMatrix in="SourceAlpha" type="matrix" values="0 0 0 0 0 0 0 0 0 0 0 0 0 0 0 0 0 0 127 0" result="hardAlpha"/>
<feOffset dx="1.49665" dy="2.9933"/>
<feGaussianBlur stdDeviation="4.48995"/>
<feComposite in2="hardAlpha" operator="out"/>
<feColorMatrix type="matrix" values="0 0 0 0 0.392157 0 0 0 0 0.203922 0 0 0 0 0.972549 0 0 0 0.15 0"/>
<feBlend mode="normal" in2="BackgroundImageFix" result="effect1_dropShadow_120_49"/>
<feBlend mode="normal" in="SourceGraphic" in2="effect1_dropShadow_120_49" result="shape"/>
</filter>
<filter id="filter4_d_120_49" x="524.517" y="58.0134" width="181.96" height="87.9598" filterUnits="userSpaceOnUse" color-interpolation-filters="sRGB">
<feFlood flood-opacity="0" result="BackgroundImageFix"/>
<feColorMatrix in="SourceAlpha" type="matrix" values="0 0 0 0 0 0 0 0 0 0 0 0 0 0 0 0 0 0 127 0" result="hardAlpha"/>
<feOffset dx="1.49665" dy="2.9933"/>
<feGaussianBlur stdDeviation="4.48995"/>
<feComposite in2="hardAlpha" operator="out"/>
<feColorMatrix type="matrix" values="0 0 0 0 0.392157 0 0 0 0 0.203922 0 0 0 0 0.972549 0 0 0 0.15 0"/>
<feBlend mode="normal" in2="BackgroundImageFix" result="effect1_dropShadow_120_49"/>
<feBlend mode="normal" in="SourceGraphic" in2="effect1_dropShadow_120_49" result="shape"/>
</filter>
<filter id="filter5_d_120_49" x="707.517" y="58.0134" width="181.96" height="87.9598" filterUnits="userSpaceOnUse" color-interpolation-filters="sRGB">
<feFlood flood-opacity="0" result="BackgroundImageFix"/>
<feColorMatrix in="SourceAlpha" type="matrix" values="0 0 0 0 0 0 0 0 0 0 0 0 0 0 0 0 0 0 127 0" result="hardAlpha"/>
<feOffset dx="1.49665" dy="2.9933"/>
<feGaussianBlur stdDeviation="4.48995"/>
<feComposite in2="hardAlpha" operator="out"/>
<feColorMatrix type="matrix" values="0 0 0 0 0.392157 0 0 0 0 0.203922 0 0 0 0 0.972549 0 0 0 0.15 0"/>
<feBlend mode="normal" in2="BackgroundImageFix" result="effect1_dropShadow_120_49"/>
<feBlend mode="normal" in="SourceGraphic" in2="effect1_dropShadow_120_49" result="shape"/>
</filter>
<filter id="filter6_d_120_49" x="890.517" y="58.0134" width="181.96" height="87.9598" filterUnits="userSpaceOnUse" color-interpolation-filters="sRGB">
<feFlood flood-opacity="0" result="BackgroundImageFix"/>
<feColorMatrix in="SourceAlpha" type="matrix" values="0 0 0 0 0 0 0 0 0 0 0 0 0 0 0 0 0 0 127 0" result="hardAlpha"/>
<feOffset dx="1.49665" dy="2.9933"/>
<feGaussianBlur stdDeviation="4.48995"/>
<feComposite in2="hardAlpha" operator="out"/>
<feColorMatrix type="matrix" values="0 0 0 0 0.392157 0 0 0 0 0.203922 0 0 0 0 0.972549 0 0 0 0.15 0"/>
<feBlend mode="normal" in2="BackgroundImageFix" result="effect1_dropShadow_120_49"/>
<feBlend mode="normal" in="SourceGraphic" in2="effect1_dropShadow_120_49" result="shape"/>
</filter>
<filter id="filter7_d_120_49" x="161.517" y="155.013" width="1024.96" height="250.96" filterUnits="userSpaceOnUse" color-interpolation-filters="sRGB">
<feFlood flood-opacity="0" result="BackgroundImageFix"/>
<feColorMatrix in="SourceAlpha" type="matrix" values="0 0 0 0 0 0 0 0 0 0 0 0 0 0 0 0 0 0 127 0" result="hardAlpha"/>
<feOffset dx="1.49665" dy="2.9933"/>
<feGaussianBlur stdDeviation="4.48995"/>
<feComposite in2="hardAlpha" operator="out"/>
<feColorMatrix type="matrix" values="0 0 0 0 0.392157 0 0 0 0 0.203922 0 0 0 0 0.972549 0 0 0 0.15 0"/>
<feBlend mode="normal" in2="BackgroundImageFix" result="effect1_dropShadow_120_49"/>
<feBlend mode="normal" in="SourceGraphic" in2="effect1_dropShadow_120_49" result="shape"/>
</filter>
<filter id="filter8_d_120_49" x="161.517" y="403.013" width="1024.96" height="257.96" filterUnits="userSpaceOnUse" color-interpolation-filters="sRGB">
<feFlood flood-opacity="0" result="BackgroundImageFix"/>
<feColorMatrix in="SourceAlpha" type="matrix" values="0 0 0 0 0 0 0 0 0 0 0 0 0 0 0 0 0 0 127 0" result="hardAlpha"/>
<feOffset dx="1.49665" dy="2.9933"/>
<feGaussianBlur stdDeviation="4.48995"/>
<feComposite in2="hardAlpha" operator="out"/>
<feColorMatrix type="matrix" values="0 0 0 0 0.392157 0 0 0 0 0.203922 0 0 0 0 0.972549 0 0 0 0.15 0"/>
<feBlend mode="normal" in2="BackgroundImageFix" result="effect1_dropShadow_120_49"/>
<feBlend mode="normal" in="SourceGraphic" in2="effect1_dropShadow_120_49" result="shape"/>
</filter>
<linearGradient id="paint0_linear_120_49" x1="60.429" y1="0" x2="60.429" y2="566.648" gradientUnits="userSpaceOnUse">
<stop stop-color="#689AEC"/>
<stop offset="1" stop-color="#689AEC"/>
</linearGradient>
<linearGradient id="paint1_linear_120_49" x1="60.429" y1="0" x2="60.429" y2="566.648" gradientUnits="userSpaceOnUse">
<stop stop-color="#698EBF"/>
<stop offset="0.0001" stop-color="#245CA6"/>
</linearGradient>
<clipPath id="clip0_120_49">
<rect width="1280" height="720" fill="white"/>
</clipPath>
<clipPath id="clip1_120_49">
<rect width="1153" height="630" fill="white" transform="translate(64 51)"/>
</clipPath>
<clipPath id="clip2_120_49">
<rect width="88" height="78" fill="white" transform="translate(1088 60.0002)"/>
</clipPath>
</defs>
</svg>
